<?xml version="1.0" encoding="UTF-8" standalone="no"?>
<!-- Created with Inkscape (http://www.inkscape.org/) -->

<svg
   xmlns:dc="http://purl.org/dc/elements/1.1/"
   xmlns:cc="http://creativecommons.org/ns#"
   xmlns:rdf="http://www.w3.org/1999/02/22-rdf-syntax-ns#"
   xmlns:svg="http://www.w3.org/2000/svg"
   xmlns="http://www.w3.org/2000/svg"
   xmlns:sodipodi="http://sodipodi.sourceforge.net/DTD/sodipodi-0.dtd"
   xmlns:inkscape="http://www.inkscape.org/namespaces/inkscape"
   width="440"
   height="275"
   viewBox="0 0 440.00001 275.00001"
   id="svg2"
   version="1.1"
   inkscape:version="0.91 r13725"
   sodipodi:docname="flavour_map.svg">
  <defs
     id="defs4" />
  <sodipodi:namedview
     id="base"
     pagecolor="#ffffff"
     bordercolor="#666666"
     borderopacity="1.0"
     inkscape:pageopacity="0.0"
     inkscape:pageshadow="2"
     inkscape:zoom="0.98994949"
     inkscape:cx="226.44432"
     inkscape:cy="187.73048"
     inkscape:document-units="px"
     inkscape:current-layer="layer1"
     showgrid="false"
     units="px"
     inkscape:window-width="1440"
     inkscape:window-height="851"
     inkscape:window-x="0"
     inkscape:window-y="1"
     inkscape:window-maximized="1" />
  <metadata
     id="metadata7">
    <rdf:RDF>
      <cc:Work
         rdf:about="">
        <dc:format>image/svg+xml</dc:format>
        <dc:type
           rdf:resource="http://purl.org/dc/dcmitype/StillImage" />
        <dc:title></dc:title>
      </cc:Work>
    </rdf:RDF>
  </metadata>
  <g
     inkscape:groupmode="layer"
     id="layer4"
     inkscape:label="bg"
     style="display:inline">
    <g
       transform="matrix(1.0045455,0,0,0.91666661,-1.00001,-689.66518)"
       id="g4254">
      <rect
         style="color:#000000;display:inline;overflow:visible;visibility:visible;opacity:1;fill:#f2cb38;fill-opacity:1;fill-rule:nonzero;stroke:none;stroke-width:6;stroke-linecap:round;stroke-linejoin:round;stroke-miterlimit:4;stroke-dasharray:none;stroke-dashoffset:0;stroke-opacity:1;marker:none;enable-background:accumulate"
         id="rect4256"
         width="110"
         height="75"
         x="0"
         y="-827.36206"
         transform="scale(1,-1)" />
      <rect
         transform="scale(1,-1)"
         y="-902.36206"
         x="0"
         height="75"
         width="110"
         id="rect4258"
         style="color:#000000;display:inline;overflow:visible;visibility:visible;opacity:1;fill:#e49f1e;fill-opacity:1;fill-rule:nonzero;stroke:none;stroke-width:6;stroke-linecap:round;stroke-linejoin:round;stroke-miterlimit:4;stroke-dasharray:none;stroke-dashoffset:0;stroke-opacity:1;marker:none;enable-background:accumulate" />
      <rect
         style="color:#000000;display:inline;overflow:visible;visibility:visible;opacity:1;fill:#985b09;fill-opacity:1;fill-rule:nonzero;stroke:none;stroke-width:6;stroke-linecap:round;stroke-linejoin:round;stroke-miterlimit:4;stroke-dasharray:none;stroke-dashoffset:0;stroke-opacity:1;marker:none;enable-background:accumulate"
         id="rect4260"
         width="110"
         height="75"
         x="0"
         y="-977.36206"
         transform="scale(1,-1)" />
      <rect
         transform="scale(1,-1)"
         y="-1052.3621"
         x="0"
         height="75"
         width="110"
         id="rect4262"
         style="color:#000000;display:inline;overflow:visible;visibility:visible;opacity:1;fill:#4b2b01;fill-opacity:1;fill-rule:nonzero;stroke:none;stroke-width:6;stroke-linecap:round;stroke-linejoin:round;stroke-miterlimit:4;stroke-dasharray:none;stroke-dashoffset:0;stroke-opacity:1;marker:none;enable-background:accumulate" />
      <rect
         transform="scale(1,-1)"
         y="-827.36206"
         x="330"
         height="75"
         width="110"
         id="rect4264"
         style="color:#000000;display:inline;overflow:visible;visibility:visible;opacity:1;fill:#bdf238;fill-opacity:1;fill-rule:nonzero;stroke:none;stroke-width:6;stroke-linecap:round;stroke-linejoin:round;stroke-miterlimit:4;stroke-dasharray:none;stroke-dashoffset:0;stroke-opacity:1;marker:none;enable-background:accumulate" />
      <rect
         style="color:#000000;display:inline;overflow:visible;visibility:visible;opacity:1;fill:#c5e31e;fill-opacity:1;fill-rule:nonzero;stroke:none;stroke-width:6;stroke-linecap:round;stroke-linejoin:round;stroke-miterlimit:4;stroke-dasharray:none;stroke-dashoffset:0;stroke-opacity:1;marker:none;enable-background:accumulate"
         id="rect4266"
         width="110"
         height="75"
         x="330"
         y="-902.36206"
         transform="scale(1,-1)" />
      <rect
         transform="scale(1,-1)"
         y="-977.36206"
         x="330"
         height="75"
         width="110"
         id="rect4268"
         style="color:#000000;display:inline;overflow:visible;visibility:visible;opacity:1;fill:#b8c40c;fill-opacity:1;fill-rule:nonzero;stroke:none;stroke-width:6;stroke-linecap:round;stroke-linejoin:round;stroke-miterlimit:4;stroke-dasharray:none;stroke-dashoffset:0;stroke-opacity:1;marker:none;enable-background:accumulate" />
      <rect
         style="color:#000000;display:inline;overflow:visible;visibility:visible;opacity:1;fill:#6b7302;fill-opacity:1;fill-rule:nonzero;stroke:none;stroke-width:6;stroke-linecap:round;stroke-linejoin:round;stroke-miterlimit:4;stroke-dasharray:none;stroke-dashoffset:0;stroke-opacity:1;marker:none;enable-background:accumulate"
         id="rect4270"
         width="110"
         height="75"
         x="330"
         y="-1052.3621"
         transform="scale(1,-1)" />
      <rect
         transform="scale(1,-1)"
         y="-827.36206"
         x="110"
         height="75"
         width="110"
         id="rect4272"
         style="color:#000000;display:inline;overflow:visible;visibility:visible;opacity:1;fill:#f2e938;fill-opacity:1;fill-rule:nonzero;stroke:none;stroke-width:6;stroke-linecap:round;stroke-linejoin:round;stroke-miterlimit:4;stroke-dasharray:none;stroke-dashoffset:0;stroke-opacity:1;marker:none;enable-background:accumulate" />
      <rect
         style="color:#000000;display:inline;overflow:visible;visibility:visible;opacity:1;fill:#e3bf1e;fill-opacity:1;fill-rule:nonzero;stroke:none;stroke-width:6;stroke-linecap:round;stroke-linejoin:round;stroke-miterlimit:4;stroke-dasharray:none;stroke-dashoffset:0;stroke-opacity:1;marker:none;enable-background:accumulate"
         id="rect4274"
         width="110"
         height="75"
         x="110"
         y="-902.36206"
         transform="scale(1,-1)" />
      <rect
         transform="scale(1,-1)"
         y="-977.36206"
         x="110"
         height="75"
         width="110"
         id="rect4277"
         style="color:#000000;display:inline;overflow:visible;visibility:visible;opacity:1;fill:#c4930c;fill-opacity:1;fill-rule:nonzero;stroke:none;stroke-width:6;stroke-linecap:round;stroke-linejoin:round;stroke-miterlimit:4;stroke-dasharray:none;stroke-dashoffset:0;stroke-opacity:1;marker:none;enable-background:accumulate" />
      <rect
         style="color:#000000;display:inline;overflow:visible;visibility:visible;opacity:1;fill:#735502;fill-opacity:1;fill-rule:nonzero;stroke:none;stroke-width:6;stroke-linecap:round;stroke-linejoin:round;stroke-miterlimit:4;stroke-dasharray:none;stroke-dashoffset:0;stroke-opacity:1;marker:none;enable-background:accumulate"
         id="rect4279"
         width="110"
         height="75"
         x="110"
         y="-1052.3621"
         transform="scale(1,-1)" />
      <rect
         style="color:#000000;display:inline;overflow:visible;visibility:visible;opacity:1;fill:#dcf238;fill-opacity:1;fill-rule:nonzero;stroke:none;stroke-width:6;stroke-linecap:round;stroke-linejoin:round;stroke-miterlimit:4;stroke-dasharray:none;stroke-dashoffset:0;stroke-opacity:1;marker:none;enable-background:accumulate"
         id="rect4281"
         width="110"
         height="75"
         x="220"
         y="-827.36206"
         transform="scale(1,-1)" />
      <rect
         transform="scale(1,-1)"
         y="-902.36206"
         x="220"
         height="75"
         width="110"
         id="rect4283"
         style="color:#000000;display:inline;overflow:visible;visibility:visible;opacity:1;fill:#e3e01e;fill-opacity:1;fill-rule:nonzero;stroke:none;stroke-width:6;stroke-linecap:round;stroke-linejoin:round;stroke-miterlimit:4;stroke-dasharray:none;stroke-dashoffset:0;stroke-opacity:1;marker:none;enable-background:accumulate" />
      <rect
         style="color:#000000;display:inline;overflow:visible;visibility:visible;opacity:1;fill:#c4b20c;fill-opacity:1;fill-rule:nonzero;stroke:none;stroke-width:6;stroke-linecap:round;stroke-linejoin:round;stroke-miterlimit:4;stroke-dasharray:none;stroke-dashoffset:0;stroke-opacity:1;marker:none;enable-background:accumulate"
         id="rect4285"
         width="110"
         height="75"
         x="220"
         y="-977.36206"
         transform="scale(1,-1)" />
      <rect
         transform="scale(1,-1)"
         y="-1052.3621"
         x="220"
         height="75"
         width="110"
         id="rect4287"
         style="color:#000000;display:inline;overflow:visible;visibility:visible;opacity:1;fill:#736802;fill-opacity:1;fill-rule:nonzero;stroke:none;stroke-width:6;stroke-linecap:round;stroke-linejoin:round;stroke-miterlimit:4;stroke-dasharray:none;stroke-dashoffset:0;stroke-opacity:1;marker:none;enable-background:accumulate" />
    </g>
  </g>
  <g
     inkscape:label="Layer 1"
     inkscape:groupmode="layer"
     id="layer1"
     transform="translate(0,-777.36208)"
     style="display:inline">
    <g
       id="g4185"
       transform="matrix(1,0,0,0.91666661,0,87.696903)">
      <rect
         transform="scale(1,-1)"
         y="-827.36206"
         x="0"
         height="75"
         width="110"
         id="rect4276"
         style="color:#000000;display:inline;overflow:visible;visibility:visible;opacity:1;fill:#f2cb38;fill-opacity:1;fill-rule:nonzero;stroke:none;stroke-width:6;stroke-linecap:round;stroke-linejoin:round;stroke-miterlimit:4;stroke-dasharray:none;stroke-dashoffset:0;stroke-opacity:1;marker:none;enable-background:accumulate" />
      <rect
         style="color:#000000;display:inline;overflow:visible;visibility:visible;opacity:1;fill:#e49f1e;fill-opacity:1;fill-rule:nonzero;stroke:none;stroke-width:6;stroke-linecap:round;stroke-linejoin:round;stroke-miterlimit:4;stroke-dasharray:none;stroke-dashoffset:0;stroke-opacity:1;marker:none;enable-background:accumulate"
         id="rect4278"
         width="110"
         height="75"
         x="0"
         y="-902.36206"
         transform="scale(1,-1)" />
      <rect
         transform="scale(1,-1)"
         y="-977.36206"
         x="0"
         height="75"
         width="110"
         id="rect4280"
         style="color:#000000;display:inline;overflow:visible;visibility:visible;opacity:1;fill:#985b09;fill-opacity:1;fill-rule:nonzero;stroke:none;stroke-width:6;stroke-linecap:round;stroke-linejoin:round;stroke-miterlimit:4;stroke-dasharray:none;stroke-dashoffset:0;stroke-opacity:1;marker:none;enable-background:accumulate" />
      <rect
         style="color:#000000;display:inline;overflow:visible;visibility:visible;opacity:1;fill:#4b2b01;fill-opacity:1;fill-rule:nonzero;stroke:none;stroke-width:6;stroke-linecap:round;stroke-linejoin:round;stroke-miterlimit:4;stroke-dasharray:none;stroke-dashoffset:0;stroke-opacity:1;marker:none;enable-background:accumulate"
         id="rect4282"
         width="110"
         height="75"
         x="0"
         y="-1052.3621"
         transform="scale(1,-1)" />
      <rect
         style="color:#000000;display:inline;overflow:visible;visibility:visible;opacity:1;fill:#bdf238;fill-opacity:1;fill-rule:nonzero;stroke:none;stroke-width:6;stroke-linecap:round;stroke-linejoin:round;stroke-miterlimit:4;stroke-dasharray:none;stroke-dashoffset:0;stroke-opacity:1;marker:none;enable-background:accumulate"
         id="rect4284"
         width="110"
         height="75"
         x="330"
         y="-827.36206"
         transform="scale(1,-1)" />
      <rect
         transform="scale(1,-1)"
         y="-902.36206"
         x="330"
         height="75"
         width="110"
         id="rect4286"
         style="color:#000000;display:inline;overflow:visible;visibility:visible;opacity:1;fill:#c5e31e;fill-opacity:1;fill-rule:nonzero;stroke:none;stroke-width:6;stroke-linecap:round;stroke-linejoin:round;stroke-miterlimit:4;stroke-dasharray:none;stroke-dashoffset:0;stroke-opacity:1;marker:none;enable-background:accumulate" />
      <rect
         style="color:#000000;display:inline;overflow:visible;visibility:visible;opacity:1;fill:#b8c40c;fill-opacity:1;fill-rule:nonzero;stroke:none;stroke-width:6;stroke-linecap:round;stroke-linejoin:round;stroke-miterlimit:4;stroke-dasharray:none;stroke-dashoffset:0;stroke-opacity:1;marker:none;enable-background:accumulate"
         id="rect4288"
         width="110"
         height="75"
         x="330"
         y="-977.36206"
         transform="scale(1,-1)" />
      <rect
         transform="scale(1,-1)"
         y="-1052.3621"
         x="330"
         height="75"
         width="110"
         id="rect4290"
         style="color:#000000;display:inline;overflow:visible;visibility:visible;opacity:1;fill:#6b7302;fill-opacity:1;fill-rule:nonzero;stroke:none;stroke-width:6;stroke-linecap:round;stroke-linejoin:round;stroke-miterlimit:4;stroke-dasharray:none;stroke-dashoffset:0;stroke-opacity:1;marker:none;enable-background:accumulate" />
      <rect
         style="color:#000000;display:inline;overflow:visible;visibility:visible;opacity:1;fill:#f2e938;fill-opacity:1;fill-rule:nonzero;stroke:none;stroke-width:6;stroke-linecap:round;stroke-linejoin:round;stroke-miterlimit:4;stroke-dasharray:none;stroke-dashoffset:0;stroke-opacity:1;marker:none;enable-background:accumulate"
         id="rect4284-4"
         width="110"
         height="75"
         x="110"
         y="-827.36206"
         transform="scale(1,-1)" />
      <rect
         transform="scale(1,-1)"
         y="-902.36206"
         x="110"
         height="75"
         width="110"
         id="rect4286-7"
         style="color:#000000;display:inline;overflow:visible;visibility:visible;opacity:1;fill:#e3bf1e;fill-opacity:1;fill-rule:nonzero;stroke:none;stroke-width:6;stroke-linecap:round;stroke-linejoin:round;stroke-miterlimit:4;stroke-dasharray:none;stroke-dashoffset:0;stroke-opacity:1;marker:none;enable-background:accumulate" />
      <rect
         style="color:#000000;display:inline;overflow:visible;visibility:visible;opacity:1;fill:#c4930c;fill-opacity:1;fill-rule:nonzero;stroke:none;stroke-width:6;stroke-linecap:round;stroke-linejoin:round;stroke-miterlimit:4;stroke-dasharray:none;stroke-dashoffset:0;stroke-opacity:1;marker:none;enable-background:accumulate"
         id="rect4288-8"
         width="110"
         height="75"
         x="110"
         y="-977.36206"
         transform="scale(1,-1)" />
      <rect
         transform="scale(1,-1)"
         y="-1052.3621"
         x="110"
         height="75"
         width="110"
         id="rect4290-6"
         style="color:#000000;display:inline;overflow:visible;visibility:visible;opacity:1;fill:#735502;fill-opacity:1;fill-rule:nonzero;stroke:none;stroke-width:6;stroke-linecap:round;stroke-linejoin:round;stroke-miterlimit:4;stroke-dasharray:none;stroke-dashoffset:0;stroke-opacity:1;marker:none;enable-background:accumulate" />
      <rect
         transform="scale(1,-1)"
         y="-827.36206"
         x="220"
         height="75"
         width="110"
         id="rect4316"
         style="color:#000000;display:inline;overflow:visible;visibility:visible;opacity:1;fill:#dcf238;fill-opacity:1;fill-rule:nonzero;stroke:none;stroke-width:6;stroke-linecap:round;stroke-linejoin:round;stroke-miterlimit:4;stroke-dasharray:none;stroke-dashoffset:0;stroke-opacity:1;marker:none;enable-background:accumulate" />
      <rect
         style="color:#000000;display:inline;overflow:visible;visibility:visible;opacity:1;fill:#e3e01e;fill-opacity:1;fill-rule:nonzero;stroke:none;stroke-width:6;stroke-linecap:round;stroke-linejoin:round;stroke-miterlimit:4;stroke-dasharray:none;stroke-dashoffset:0;stroke-opacity:1;marker:none;enable-background:accumulate"
         id="rect4318"
         width="110"
         height="75"
         x="220"
         y="-902.36206"
         transform="scale(1,-1)" />
      <rect
         transform="scale(1,-1)"
         y="-977.36206"
         x="220"
         height="75"
         width="110"
         id="rect4320"
         style="color:#000000;display:inline;overflow:visible;visibility:visible;opacity:1;fill:#c4b20c;fill-opacity:1;fill-rule:nonzero;stroke:none;stroke-width:6;stroke-linecap:round;stroke-linejoin:round;stroke-miterlimit:4;stroke-dasharray:none;stroke-dashoffset:0;stroke-opacity:1;marker:none;enable-background:accumulate" />
      <rect
         style="color:#000000;display:inline;overflow:visible;visibility:visible;opacity:1;fill:#736802;fill-opacity:1;fill-rule:nonzero;stroke:none;stroke-width:6;stroke-linecap:round;stroke-linejoin:round;stroke-miterlimit:4;stroke-dasharray:none;stroke-dashoffset:0;stroke-opacity:1;marker:none;enable-background:accumulate"
         id="rect4322"
         width="110"
         height="75"
         x="220"
         y="-1052.3621"
         transform="scale(1,-1)" />
    </g>
    <g
       style="font-style:normal;font-variant:normal;font-weight:normal;font-stretch:normal;font-size:40px;line-height:125%;font-family:'Helvetica CY';-inkscape-font-specification:'Helvetica CY';letter-spacing:0px;word-spacing:0px;display:inline;opacity:0.75;fill:#000000;fill-opacity:1;stroke:none;stroke-width:1px;stroke-linecap:butt;stroke-linejoin:miter;stroke-opacity:1"
       id="text4306">
      <path
         d="m 165.40894,1020.8262 -0.26368,1.7578 q 1.7688,-1.9116 3.52661,-1.9116 1.95557,0 2.29615,2.2741 1.8457,-2.2741 3.77929,-2.2741 1.07666,0 1.72486,0.736 0.65918,0.7361 0.65918,2.0655 0,0.4175 -0.0659,0.9118 l -0.92285,6.5479 -1.91162,0 0.94482,-6.6357 q 0.0549,-0.3406 0.0549,-0.6373 0,-1.4831 -1.08764,-1.4831 -0.27466,0 -0.60425,0.1208 -0.32959,0.1099 -0.73609,0.3736 -0.40649,0.2636 -1.10961,0.9558 -0.69214,0.6921 -0.7251,0.8899 l -0.92285,6.416 -1.91163,0 0.90088,-6.394 q 0.0769,-0.4725 0.0769,-0.846 0,-1.5161 -1.19751,-1.5161 -0.75806,0 -1.88965,1.0657 -1.12061,1.0547 -1.15356,1.2744 l -0.90088,6.416 -1.91162,0 1.4392,-10.1074 1.91163,0 z"
         style="font-style:italic;font-variant:normal;font-weight:normal;font-stretch:normal;font-size:22.5px;font-family:'gill sans';-inkscape-font-specification:'gill sans Italic';text-align:center;text-anchor:middle;fill:#ffffff;fill-opacity:1"
         id="path4340" />
      <path
         d="m 188.24951,1020.8262 -1.41723,10.1074 -1.91163,0 0.18677,-1.1646 -0.0439,-0.055 q -1.32935,1.4172 -2.72461,1.4172 -1.38428,0 -2.36206,-1.1645 -0.9668,-1.1755 -0.9668,-2.8345 0,-2.8784 1.80176,-4.7461 1.81274,-1.8676 5.05371,-1.8676 1.31836,0 2.38403,0.3076 z m -2.92236,7.185 0.83496,-5.8337 q -0.30762,-0.022 -0.59326,-0.022 -2.2522,0 -3.42774,1.4392 -1.17553,1.4282 -1.17553,3.197 0,1.2195 0.5603,1.9996 0.57129,0.769 1.43921,0.769 0.69214,0 1.51611,-0.6811 0.82398,-0.6922 0.84595,-0.868 z"
         style="font-style:italic;font-variant:normal;font-weight:normal;font-stretch:normal;font-size:22.5px;font-family:'gill sans';-inkscape-font-specification:'gill sans Italic';text-align:center;text-anchor:middle;fill:#ffffff;fill-opacity:1"
         id="path4342" />
      <path
         d="m 193.35815,1015.5857 -2.1643,15.3479 -1.91162,0 2.1643,-15.3479 1.91162,0 z"
         style="font-style:italic;font-variant:normal;font-weight:normal;font-stretch:normal;font-size:22.5px;font-family:'gill sans';-inkscape-font-specification:'gill sans Italic';text-align:center;text-anchor:middle;fill:#ffffff;fill-opacity:1"
         id="path4344" />
      <path
         d="m 199.40063,1020.8262 -0.20874,1.4941 -2.02148,0 -0.9668,5.5261 q -0.0769,0.4175 -0.0769,0.7032 0,0.9887 1.06567,0.9887 0.79102,0 1.84571,-0.6042 l -0.10987,1.8677 q -1.05468,0.4504 -2.09839,0.4504 -1.24145,0 -1.96655,-0.6262 -0.71411,-0.6372 -0.71411,-1.6699 0,-0.2527 0.0549,-0.5164 l 1.05469,-6.1194 -1.77979,0 0.23072,-1.4941 1.83471,0 0.38453,-2.0655 1.88964,0 -0.35156,2.0655 1.93359,0 z"
         style="font-style:italic;font-variant:normal;font-weight:normal;font-stretch:normal;font-size:22.5px;font-family:'gill sans';-inkscape-font-specification:'gill sans Italic';text-align:center;text-anchor:middle;fill:#ffffff;fill-opacity:1"
         id="path4346" />
      <path
         d="m 208.31055,1020.8262 -7.23999,15.282 -2.03247,0 2.74658,-5.7789 -1.95557,-9.5031 1.91162,0 1.39527,6.9543 3.17505,-6.9543 1.99951,0 z"
         style="font-style:italic;font-variant:normal;font-weight:normal;font-stretch:normal;font-size:22.5px;font-family:'gill sans';-inkscape-font-specification:'gill sans Italic';text-align:center;text-anchor:middle;fill:#ffffff;fill-opacity:1"
         id="path4348" />
      <path
         d="m 219.61548,1024.968 -0.27466,1.9116 -5.35034,0 0.27466,-1.9116 5.35034,0 z"
         style="font-style:italic;font-variant:normal;font-weight:normal;font-stretch:normal;font-size:22.5px;font-family:'gill sans';-inkscape-font-specification:'gill sans Italic';text-align:center;text-anchor:middle;fill:#ffffff;fill-opacity:1"
         id="path4350" />
      <path
         d="m 230.40405,1015.5857 -0.96679,6.8664 0.0439,0.044 q 1.70288,-1.9775 3.50464,-1.9775 1.10962,0 1.72485,0.758 0.62622,0.7471 0.62622,2.0215 0,0.3625 -0.0549,0.7471 l -0.96679,6.8884 -1.91163,0 0.9668,-6.9983 q 0.033,-0.2637 0.033,-0.4944 0,-1.4831 -1.17554,-1.4831 -0.85693,0 -1.94458,1.1096 -1.08764,1.0986 -1.1206,1.2964 l -0.92285,6.5698 -1.91163,0 2.16431,-15.3479 1.91162,0 z"
         style="font-style:italic;font-variant:normal;font-weight:normal;font-stretch:normal;font-size:22.5px;font-family:'gill sans';-inkscape-font-specification:'gill sans Italic';text-align:center;text-anchor:middle;fill:#ffffff;fill-opacity:1"
         id="path4352" />
      <path
         d="m 242.04956,1020.5186 q 1.70288,0 2.72461,1.2085 1.03271,1.1975 1.03271,3.197 0,2.7685 -1.38427,4.5483 -1.38428,1.7798 -3.40576,1.7798 -1.77979,0 -2.79053,-1.1975 -1.01074,-1.1975 -1.01074,-3.3289 0,-2.6477 1.39526,-4.4275 1.39526,-1.7797 3.43872,-1.7797 z m 0,1.5051 q -1.17554,0 -2.03247,1.4612 -0.84595,1.4502 -0.84595,3.4387 0,1.1865 0.50537,1.9336 0.51636,0.747 1.27442,0.747 1.19751,0 2.04345,-1.3623 0.85694,-1.3623 0.85694,-3.4277 0,-1.2744 -0.49439,-2.0325 -0.49438,-0.758 -1.30737,-0.758 z"
         style="font-style:italic;font-variant:normal;font-weight:normal;font-stretch:normal;font-size:22.5px;font-family:'gill sans';-inkscape-font-specification:'gill sans Italic';text-align:center;text-anchor:middle;fill:#ffffff;fill-opacity:1"
         id="path4354" />
      <path
         d="m 251.21216,1018.2664 -0.36255,2.5598 q 0.76904,-0.3076 1.71387,-0.3076 1.77978,0 2.97729,1.3403 1.2085,1.3403 1.2085,3.3618 0,2.406 -1.63697,4.2188 -1.62597,1.8127 -4.46044,1.8127 l -1.26343,0 -0.67017,4.856 -1.91162,0 1.79077,-12.7771 q -0.61523,0.4394 -1.1206,1.1425 -0.49439,0.7032 -0.56031,0.7032 -0.0879,0 -0.0879,-0.1429 0,-0.5053 0.57129,-1.4502 0.58228,-0.9558 1.38428,-1.604 l 0.51636,-3.7133 1.91162,0 z m -0.5603,3.977 -1.03272,7.3828 0.92285,0 q 1.94458,0 3.09815,-1.3074 1.15356,-1.3183 1.15356,-3.0981 0,-1.5381 -0.81299,-2.395 -0.81299,-0.8679 -2.06543,-0.8679 -0.67016,0 -1.26342,0.2856 z"
         style="font-style:italic;font-variant:normal;font-weight:normal;font-stretch:normal;font-size:22.5px;font-family:'gill sans';-inkscape-font-specification:'gill sans Italic';text-align:center;text-anchor:middle;fill:#ffffff;fill-opacity:1"
         id="path4356" />
      <path
         d="m 262.24243,1018.2664 -0.36255,2.5598 q 0.76905,-0.3076 1.71387,-0.3076 1.77979,0 2.97729,1.3403 1.2085,1.3403 1.2085,3.3618 0,2.406 -1.63696,4.2188 -1.62598,1.8127 -4.46045,1.8127 l -1.26343,0 -0.67016,4.856 -1.91163,0 1.79078,-12.7771 q -0.61524,0.4394 -1.12061,1.1425 -0.49438,0.7032 -0.5603,0.7032 -0.0879,0 -0.0879,-0.1429 0,-0.5053 0.57129,-1.4502 0.58227,-0.9558 1.38427,-1.604 l 0.51636,-3.7133 1.91162,0 z m -0.5603,3.977 -1.03272,7.3828 0.92286,0 q 1.94458,0 3.09814,-1.3074 1.15356,-1.3183 1.15356,-3.0981 0,-1.5381 -0.81298,-2.395 -0.81299,-0.8679 -2.06543,-0.8679 -0.67017,0 -1.26343,0.2856 z"
         style="font-style:italic;font-variant:normal;font-weight:normal;font-stretch:normal;font-size:22.5px;font-family:'gill sans';-inkscape-font-specification:'gill sans Italic';text-align:center;text-anchor:middle;fill:#ffffff;fill-opacity:1"
         id="path4358" />
      <path
         d="m 277.56836,1020.8262 -7.23999,15.282 -2.03247,0 2.74658,-5.7789 -1.95557,-9.5031 1.91163,0 1.39526,6.9543 3.17505,-6.9543 1.99951,0 z"
         style="font-style:italic;font-variant:normal;font-weight:normal;font-stretch:normal;font-size:22.5px;font-family:'gill sans';-inkscape-font-specification:'gill sans Italic';text-align:center;text-anchor:middle;fill:#ffffff;fill-opacity:1"
         id="path4360" />
    </g>
    <g
       transform="matrix(0,1,-1,0,0,0)"
       style="font-style:normal;font-variant:normal;font-weight:normal;font-stretch:normal;font-size:40px;line-height:125%;font-family:'Helvetica CY';-inkscape-font-specification:'Helvetica CY';letter-spacing:0px;word-spacing:0px;display:inline;opacity:0.75;fill:#000000;fill-opacity:1;stroke:none;stroke-width:1px;stroke-linecap:butt;stroke-linejoin:miter;stroke-opacity:1"
       id="text4310">
      <path
         d="m 873.49304,-34.286213 -2.1643,15.3479 -1.91163,0 2.16431,-15.3479 1.91162,0 z"
         style="font-style:italic;font-variant:normal;font-weight:normal;font-stretch:normal;font-size:22.5px;font-family:'gill sans';-inkscape-font-specification:'gill sans Italic';text-align:center;text-anchor:middle;fill:#ffffff;fill-opacity:1"
         id="path4319" />
      <path
         d="m 875.26184,-32.209797 q 0,-0.461426 0.3186,-0.780029 0.32959,-0.32959 0.78003,-0.32959 0.45044,0 0.76905,0.32959 0.32959,0.318603 0.32959,0.780029 0,0.45044 -0.32959,0.780029 -0.31861,0.318604 -0.76905,0.318604 -0.45044,0 -0.78003,-0.318604 -0.3186,-0.329589 -0.3186,-0.780029 z m 1.70288,3.164063 -1.41723,10.107421 -1.91163,0 1.41724,-10.107421 1.91162,0 z"
         style="font-style:italic;font-variant:normal;font-weight:normal;font-stretch:normal;font-size:22.5px;font-family:'gill sans';-inkscape-font-specification:'gill sans Italic';text-align:center;text-anchor:middle;fill:#ffffff;fill-opacity:1"
         id="path4321" />
      <path
         d="m 887.3468,-29.045734 -0.19775,1.49414 -1.95557,0 q 0.67017,0.944824 0.67017,1.999512 0,1.208496 -0.54932,2.131348 -0.53833,0.922851 -1.32934,1.307373 -0.78003,0.373535 -2.02149,0.604248 -1.24145,0.219726 -1.57104,0.450439 -0.32959,0.219727 -0.32959,0.527344 0,0.230713 0.28564,0.428467 0.28565,0.186767 2.05444,0.615234 1.77979,0.428467 2.48291,1.142578 0.71412,0.725098 0.71412,1.702881 0,1.230469 -1.16456,2.054443 -1.16455,0.823975 -2.95532,0.823975 -1.9226,0 -3.16406,-0.74707 -1.23047,-0.747071 -1.23047,-1.867676 0,-1.461182 2.91138,-2.087402 -1.75781,-0.648194 -1.75781,-1.779786 0,-0.582275 0.53833,-1.087646 0.53833,-0.516357 1.46118,-0.780029 -1.82373,-0.86792 -1.82373,-2.900391 0,-1.702881 1.09863,-2.867432 1.10962,-1.16455 2.65869,-1.16455 l 5.17456,0 z m -5.28442,5.943603 q 0.86792,0 1.41723,-0.703125 0.56031,-0.714111 0.56031,-1.658935 0,-0.889893 -0.51636,-1.450196 -0.50537,-0.571289 -1.2854,-0.571289 -0.76904,0 -1.38428,0.714112 -0.61523,0.714111 -0.61523,1.625976 0,0.889893 0.51635,1.472168 0.51636,0.571289 1.30738,0.571289 z m -0.42847,7.89917 q 0.97778,0 1.56006,-0.351562 0.58228,-0.351563 0.58228,-0.911866 0,-0.549316 -0.95582,-0.999756 -0.95581,-0.439453 -1.29638,-0.439453 -0.42847,0 -1.5271,0.45044 -1.08765,0.461426 -1.08765,1.032715 0,0.560302 0.7251,0.889892 0.73608,0.32959 1.99951,0.32959 z"
         style="font-style:italic;font-variant:normal;font-weight:normal;font-stretch:normal;font-size:22.5px;font-family:'gill sans';-inkscape-font-specification:'gill sans Italic';text-align:center;text-anchor:middle;fill:#ffffff;fill-opacity:1"
         id="path4323" />
      <path
         d="m 891.51062,-34.286213 -0.9668,6.866455 0.0439,0.04395 q 1.70288,-1.977539 3.50464,-1.977539 1.10962,0 1.72485,0.758057 0.62622,0.74707 0.62622,2.021484 0,0.362549 -0.0549,0.747071 l -0.9668,6.888427 -1.91162,0 0.9668,-6.998291 q 0.033,-0.263671 0.033,-0.494384 0,-1.483155 -1.17554,-1.483155 -0.85693,0 -1.94458,1.10962 -1.08765,1.098632 -1.1206,1.296386 l -0.92286,6.569824 -1.91162,0 2.16431,-15.3479 1.91162,0 z"
         style="font-style:italic;font-variant:normal;font-weight:normal;font-stretch:normal;font-size:22.5px;font-family:'gill sans';-inkscape-font-specification:'gill sans Italic';text-align:center;text-anchor:middle;fill:#ffffff;fill-opacity:1"
         id="path4325" />
      <path
         d="m 903.92517,-29.045734 -0.20874,1.49414 -2.02148,0 -0.9668,5.526123 q -0.0769,0.417481 -0.0769,0.703125 0,0.98877 1.06567,0.98877 0.79101,0 1.8457,-0.604248 l -0.10986,1.867676 q -1.05469,0.450439 -2.09839,0.450439 -1.24145,0 -1.96655,-0.626221 -0.71411,-0.637207 -0.71411,-1.669922 0,-0.252685 0.0549,-0.516357 l 1.05469,-6.119385 -1.77979,0 0.23071,-1.49414 1.83472,0 0.38452,-2.06543 1.88965,0 -0.35156,2.06543 1.93359,0 z"
         style="font-style:italic;font-variant:normal;font-weight:normal;font-stretch:normal;font-size:22.5px;font-family:'gill sans';-inkscape-font-specification:'gill sans Italic';text-align:center;text-anchor:middle;fill:#ffffff;fill-opacity:1"
         id="path4327" />
      <path
         d="m 915.70251,-24.903889 -0.27465,1.911621 -5.35035,0 0.27466,-1.911621 5.35034,0 z"
         style="font-style:italic;font-variant:normal;font-weight:normal;font-stretch:normal;font-size:22.5px;font-family:'gill sans';-inkscape-font-specification:'gill sans Italic';text-align:center;text-anchor:middle;fill:#ffffff;fill-opacity:1"
         id="path4329" />
      <path
         d="m 932.69836,-34.286213 -2.1643,15.3479 q -1.10962,0.318604 -2.58179,0.318604 -2.55981,0 -3.94409,-1.219482 -1.37329,-1.219483 -1.37329,-3.460694 0,-2.197265 1.79077,-4.119873 1.79077,-1.933594 4.85596,-1.933594 l 0.802,0 0.70312,-4.932861 1.91162,0 z m -3.86718,14.040527 1.03271,-7.514648 -0.49438,0 q -2.14234,0 -3.4607,1.307373 -1.30737,1.296387 -1.30737,3.109131 0,1.505127 0.86792,2.329101 0.86792,0.812989 2.48291,0.812989 0.58228,0 0.87891,-0.04395 z"
         style="font-style:italic;font-variant:normal;font-weight:normal;font-stretch:normal;font-size:22.5px;font-family:'gill sans';-inkscape-font-specification:'gill sans Italic';text-align:center;text-anchor:middle;fill:#ffffff;fill-opacity:1"
         id="path4331" />
      <path
         d="m 942.52014,-29.045734 -1.41723,10.107421 -1.91163,0 0.18677,-1.16455 -0.0439,-0.05493 q -1.32935,1.417236 -2.72461,1.417236 -1.38428,0 -2.36206,-1.16455 -0.9668,-1.175538 -0.9668,-2.834473 0,-2.878418 1.80176,-4.746094 1.81274,-1.867676 5.05371,-1.867676 1.31836,0 2.38403,0.307618 z m -2.92236,7.185058 0.83496,-5.83374 q -0.30762,-0.02197 -0.59326,-0.02197 -2.2522,0 -3.42774,1.439209 -1.17553,1.428223 -1.17553,3.197022 0,1.219482 0.5603,1.999511 0.57129,0.769043 1.43921,0.769043 0.69214,0 1.51611,-0.681152 0.82398,-0.692139 0.84595,-0.86792 z"
         style="font-style:italic;font-variant:normal;font-weight:normal;font-stretch:normal;font-size:22.5px;font-family:'gill sans';-inkscape-font-specification:'gill sans Italic';text-align:center;text-anchor:middle;fill:#ffffff;fill-opacity:1"
         id="path4333" />
      <path
         d="m 947.20032,-29.045734 -0.29663,1.922607 0.0439,0.04395 q 0.90088,-1.2854 1.42822,-1.702881 0.52735,-0.41748 1.25245,-0.41748 0.45044,0 0.83496,0.153809 l 0,2.164306 q -0.60425,-0.340576 -1.17554,-0.340576 -0.5603,0 -0.99976,0.285645 -0.43945,0.274658 -1.06567,1.197509 -0.62622,0.911866 -0.64819,1.10962 l -0.79102,5.690917 -1.91162,0 1.41724,-10.107421 1.91162,0 z"
         style="font-style:italic;font-variant:normal;font-weight:normal;font-stretch:normal;font-size:22.5px;font-family:'gill sans';-inkscape-font-specification:'gill sans Italic';text-align:center;text-anchor:middle;fill:#ffffff;fill-opacity:1"
         id="path4335" />
      <path
         d="m 954.66003,-34.286213 -1.38427,9.678955 4.28466,-4.438476 2.42798,0 -4.63623,4.779052 4.95484,5.328369 -2.42798,0 -4.6582,-5.130615 -0.7251,5.130615 -1.88965,0 2.14233,-15.3479 1.91162,0 z"
         style="font-style:italic;font-variant:normal;font-weight:normal;font-stretch:normal;font-size:22.5px;font-family:'gill sans';-inkscape-font-specification:'gill sans Italic';text-align:center;text-anchor:middle;fill:#ffffff;fill-opacity:1"
         id="path4337" />
    </g>
  </g>
  <g
     inkscape:groupmode="layer"
     id="layer2"
     inkscape:label="fonts"
     style="display:none"
     transform="translate(0,-25)"
     sodipodi:insensitive="true">
    <text
       transform="translate(0,-752.36208)"
       sodipodi:linespacing="125%"
       id="text4370"
       y="1030.9336"
       x="135.86182"
       style="font-style:normal;font-variant:normal;font-weight:normal;font-stretch:normal;font-size:40px;line-height:125%;font-family:'Helvetica CY';-inkscape-font-specification:'Helvetica CY';letter-spacing:0px;word-spacing:0px;opacity:0.75;fill:#000000;fill-opacity:1;stroke:none;stroke-width:1px;stroke-linecap:butt;stroke-linejoin:miter;stroke-opacity:1"
       xml:space="preserve"><tspan
         style="font-style:italic;font-variant:normal;font-weight:normal;font-stretch:normal;font-size:32.5px;font-family:'gill sans';-inkscape-font-specification:'gill sans Italic';fill:#ffffff;fill-opacity:1"
         y="1030.9336"
         x="135.86182"
         id="tspan4372"
         sodipodi:role="line">malty - hoppy</tspan></text>
    <text
       transform="matrix(0,1,-1,0,0,-752.36208)"
       sodipodi:linespacing="125%"
       id="text4374"
       y="-18.938313"
       x="835.97351"
       style="font-style:normal;font-variant:normal;font-weight:normal;font-stretch:normal;font-size:40px;line-height:125%;font-family:'Helvetica CY';-inkscape-font-specification:'Helvetica CY';letter-spacing:0px;word-spacing:0px;opacity:0.75;fill:#000000;fill-opacity:1;stroke:none;stroke-width:1px;stroke-linecap:butt;stroke-linejoin:miter;stroke-opacity:1"
       xml:space="preserve"><tspan
         style="font-style:italic;font-variant:normal;font-weight:normal;font-stretch:normal;font-size:32.5px;font-family:'gill sans';-inkscape-font-specification:'gill sans Italic';fill:#ffffff;fill-opacity:1"
         y="-18.938313"
         x="835.97351"
         id="tspan4376"
         sodipodi:role="line">light - dark</tspan></text>
  </g>
</svg>
