<?xml version="1.0" encoding="UTF-8" standalone="no"?>
<!-- Created with Inkscape (http://www.inkscape.org/) -->

<svg
   xmlns:dc="http://purl.org/dc/elements/1.1/"
   xmlns:cc="http://creativecommons.org/ns#"
   xmlns:rdf="http://www.w3.org/1999/02/22-rdf-syntax-ns#"
   xmlns:svg="http://www.w3.org/2000/svg"
   xmlns="http://www.w3.org/2000/svg"
   xmlns:sodipodi="http://sodipodi.sourceforge.net/DTD/sodipodi-0.dtd"
   xmlns:inkscape="http://www.inkscape.org/namespaces/inkscape"
   width="440"
   height="300"
   viewBox="0 0 440.00001 300.00001"
   id="svg2"
   version="1.1"
   inkscape:version="0.91 r13725"
   sodipodi:docname="flavour_map_v001.svg">
  <defs
     id="defs4" />
  <sodipodi:namedview
     id="base"
     pagecolor="#ffffff"
     bordercolor="#666666"
     borderopacity="1.0"
     inkscape:pageopacity="0.0"
     inkscape:pageshadow="2"
     inkscape:zoom="0.35"
     inkscape:cx="159.3022"
     inkscape:cy="409.13674"
     inkscape:document-units="px"
     inkscape:current-layer="text4348-0"
     showgrid="false"
     units="px"
     inkscape:window-width="1440"
     inkscape:window-height="851"
     inkscape:window-x="0"
     inkscape:window-y="1"
     inkscape:window-maximized="1" />
  <metadata
     id="metadata7">
    <rdf:RDF>
      <cc:Work
         rdf:about="">
        <dc:format>image/svg+xml</dc:format>
        <dc:type
           rdf:resource="http://purl.org/dc/dcmitype/StillImage" />
        <dc:title></dc:title>
      </cc:Work>
    </rdf:RDF>
  </metadata>
  <g
     inkscape:label="Layer 1"
     inkscape:groupmode="layer"
     id="layer1"
     transform="translate(0,-752.36208)">
    <g
       id="g4342">
      <rect
         transform="scale(1,-1)"
         y="-827.36206"
         x="0"
         height="75"
         width="110"
         id="rect4276"
         style="color:#000000;display:inline;overflow:visible;visibility:visible;opacity:1;fill:#f2cb38;fill-opacity:1;fill-rule:nonzero;stroke:none;stroke-width:6;stroke-linecap:round;stroke-linejoin:round;stroke-miterlimit:4;stroke-dasharray:none;stroke-dashoffset:0;stroke-opacity:1;marker:none;enable-background:accumulate" />
      <rect
         style="color:#000000;display:inline;overflow:visible;visibility:visible;opacity:1;fill:#e49f1e;fill-opacity:1;fill-rule:nonzero;stroke:none;stroke-width:6;stroke-linecap:round;stroke-linejoin:round;stroke-miterlimit:4;stroke-dasharray:none;stroke-dashoffset:0;stroke-opacity:1;marker:none;enable-background:accumulate"
         id="rect4278"
         width="110"
         height="75"
         x="0"
         y="-902.36206"
         transform="scale(1,-1)" />
      <rect
         transform="scale(1,-1)"
         y="-977.36206"
         x="0"
         height="75"
         width="110"
         id="rect4280"
         style="color:#000000;display:inline;overflow:visible;visibility:visible;opacity:1;fill:#985b09;fill-opacity:1;fill-rule:nonzero;stroke:none;stroke-width:6;stroke-linecap:round;stroke-linejoin:round;stroke-miterlimit:4;stroke-dasharray:none;stroke-dashoffset:0;stroke-opacity:1;marker:none;enable-background:accumulate" />
      <rect
         style="color:#000000;display:inline;overflow:visible;visibility:visible;opacity:1;fill:#4b2b01;fill-opacity:1;fill-rule:nonzero;stroke:none;stroke-width:6;stroke-linecap:round;stroke-linejoin:round;stroke-miterlimit:4;stroke-dasharray:none;stroke-dashoffset:0;stroke-opacity:1;marker:none;enable-background:accumulate"
         id="rect4282"
         width="110"
         height="75"
         x="0"
         y="-1052.3621"
         transform="scale(1,-1)" />
    </g>
    <g
       id="g4336">
      <rect
         style="color:#000000;display:inline;overflow:visible;visibility:visible;opacity:1;fill:#bdf238;fill-opacity:1;fill-rule:nonzero;stroke:none;stroke-width:6;stroke-linecap:round;stroke-linejoin:round;stroke-miterlimit:4;stroke-dasharray:none;stroke-dashoffset:0;stroke-opacity:1;marker:none;enable-background:accumulate"
         id="rect4284"
         width="110"
         height="75"
         x="330"
         y="-827.36206"
         transform="scale(1,-1)" />
      <rect
         transform="scale(1,-1)"
         y="-902.36206"
         x="330"
         height="75"
         width="110"
         id="rect4286"
         style="color:#000000;display:inline;overflow:visible;visibility:visible;opacity:1;fill:#c5e31e;fill-opacity:1;fill-rule:nonzero;stroke:none;stroke-width:6;stroke-linecap:round;stroke-linejoin:round;stroke-miterlimit:4;stroke-dasharray:none;stroke-dashoffset:0;stroke-opacity:1;marker:none;enable-background:accumulate" />
      <rect
         style="color:#000000;display:inline;overflow:visible;visibility:visible;opacity:1;fill:#b8c40c;fill-opacity:1;fill-rule:nonzero;stroke:none;stroke-width:6;stroke-linecap:round;stroke-linejoin:round;stroke-miterlimit:4;stroke-dasharray:none;stroke-dashoffset:0;stroke-opacity:1;marker:none;enable-background:accumulate"
         id="rect4288"
         width="110"
         height="75"
         x="330"
         y="-977.36206"
         transform="scale(1,-1)" />
      <rect
         transform="scale(1,-1)"
         y="-1052.3621"
         x="330"
         height="75"
         width="110"
         id="rect4290"
         style="color:#000000;display:inline;overflow:visible;visibility:visible;opacity:1;fill:#6b7302;fill-opacity:1;fill-rule:nonzero;stroke:none;stroke-width:6;stroke-linecap:round;stroke-linejoin:round;stroke-miterlimit:4;stroke-dasharray:none;stroke-dashoffset:0;stroke-opacity:1;marker:none;enable-background:accumulate" />
    </g>
    <g
       id="g4330"
       transform="translate(2.1428528,-7.1428028)">
      <rect
         style="color:#000000;display:inline;overflow:visible;visibility:visible;opacity:1;fill:#f2e938;fill-opacity:1;fill-rule:nonzero;stroke:none;stroke-width:6;stroke-linecap:round;stroke-linejoin:round;stroke-miterlimit:4;stroke-dasharray:none;stroke-dashoffset:0;stroke-opacity:1;marker:none;enable-background:accumulate"
         id="rect4284-4"
         width="110"
         height="75"
         x="107.85715"
         y="-834.50488"
         transform="scale(1,-1)" />
      <rect
         transform="scale(1,-1)"
         y="-909.50488"
         x="107.85715"
         height="75"
         width="110"
         id="rect4286-7"
         style="color:#000000;display:inline;overflow:visible;visibility:visible;opacity:1;fill:#e3bf1e;fill-opacity:1;fill-rule:nonzero;stroke:none;stroke-width:6;stroke-linecap:round;stroke-linejoin:round;stroke-miterlimit:4;stroke-dasharray:none;stroke-dashoffset:0;stroke-opacity:1;marker:none;enable-background:accumulate" />
      <rect
         style="color:#000000;display:inline;overflow:visible;visibility:visible;opacity:1;fill:#c4930c;fill-opacity:1;fill-rule:nonzero;stroke:none;stroke-width:6;stroke-linecap:round;stroke-linejoin:round;stroke-miterlimit:4;stroke-dasharray:none;stroke-dashoffset:0;stroke-opacity:1;marker:none;enable-background:accumulate"
         id="rect4288-8"
         width="110"
         height="75"
         x="107.85715"
         y="-984.50488"
         transform="scale(1,-1)" />
      <rect
         transform="scale(1,-1)"
         y="-1059.5049"
         x="107.85715"
         height="75"
         width="110"
         id="rect4290-6"
         style="color:#000000;display:inline;overflow:visible;visibility:visible;opacity:1;fill:#735502;fill-opacity:1;fill-rule:nonzero;stroke:none;stroke-width:6;stroke-linecap:round;stroke-linejoin:round;stroke-miterlimit:4;stroke-dasharray:none;stroke-dashoffset:0;stroke-opacity:1;marker:none;enable-background:accumulate" />
    </g>
    <g
       id="g4324"
       transform="translate(2.1428528,-4.2856861)">
      <rect
         transform="scale(1,-1)"
         y="-831.64777"
         x="217.85715"
         height="75"
         width="110"
         id="rect4316"
         style="color:#000000;display:inline;overflow:visible;visibility:visible;opacity:1;fill:#dcf238;fill-opacity:1;fill-rule:nonzero;stroke:none;stroke-width:6;stroke-linecap:round;stroke-linejoin:round;stroke-miterlimit:4;stroke-dasharray:none;stroke-dashoffset:0;stroke-opacity:1;marker:none;enable-background:accumulate" />
      <rect
         style="color:#000000;display:inline;overflow:visible;visibility:visible;opacity:1;fill:#e3e01e;fill-opacity:1;fill-rule:nonzero;stroke:none;stroke-width:6;stroke-linecap:round;stroke-linejoin:round;stroke-miterlimit:4;stroke-dasharray:none;stroke-dashoffset:0;stroke-opacity:1;marker:none;enable-background:accumulate"
         id="rect4318"
         width="110"
         height="75"
         x="217.85715"
         y="-906.64777"
         transform="scale(1,-1)" />
      <rect
         transform="scale(1,-1)"
         y="-981.64777"
         x="217.85715"
         height="75"
         width="110"
         id="rect4320"
         style="color:#000000;display:inline;overflow:visible;visibility:visible;opacity:1;fill:#c4b20c;fill-opacity:1;fill-rule:nonzero;stroke:none;stroke-width:6;stroke-linecap:round;stroke-linejoin:round;stroke-miterlimit:4;stroke-dasharray:none;stroke-dashoffset:0;stroke-opacity:1;marker:none;enable-background:accumulate" />
      <rect
         style="color:#000000;display:inline;overflow:visible;visibility:visible;opacity:1;fill:#736802;fill-opacity:1;fill-rule:nonzero;stroke:none;stroke-width:6;stroke-linecap:round;stroke-linejoin:round;stroke-miterlimit:4;stroke-dasharray:none;stroke-dashoffset:0;stroke-opacity:1;marker:none;enable-background:accumulate"
         id="rect4322"
         width="110"
         height="75"
         x="217.85715"
         y="-1056.6477"
         transform="scale(1,-1)" />
    </g>
    <g
       style="font-style:normal;font-variant:normal;font-weight:normal;font-stretch:normal;font-size:40px;line-height:125%;font-family:'Helvetica CY';-inkscape-font-specification:'Helvetica CY';letter-spacing:0px;word-spacing:0px;opacity:0.75;fill:#000000;fill-opacity:1;stroke:none;stroke-width:1px;stroke-linecap:butt;stroke-linejoin:miter;stroke-opacity:1"
       id="text4348">
      <path
         d="m 141.41602,1016.334 -0.38086,2.539 q 2.55493,-2.7612 5.09399,-2.7612 2.82471,0 3.31665,3.2849 2.66602,-3.2849 5.45899,-3.2849 1.55517,0 2.49145,1.0632 0.95215,1.0633 0.95215,2.9834 0,0.6031 -0.0952,1.3172 l -1.333,9.458 -2.76123,0 1.36474,-9.585 q 0.0793,-0.4919 0.0793,-0.9204 0,-2.1423 -1.57105,-2.1423 -0.39673,0 -0.8728,0.1745 -0.47607,0.1587 -1.06323,0.5396 -0.58716,0.3809 -1.60279,1.3806 -0.99975,0.9998 -1.04736,1.2854 l -1.33301,9.2676 -2.76123,0 1.30127,-9.2358 q 0.11109,-0.6824 0.11109,-1.222 0,-2.1899 -1.72974,-2.1899 -1.09497,0 -2.72949,1.5393 -1.61865,1.5234 -1.66626,1.8408 l -1.30127,9.2676 -2.76123,0 2.07886,-14.5996 2.76123,0 z"
         style="font-style:italic;font-variant:normal;font-weight:normal;font-stretch:normal;font-size:32.5px;font-family:'gill sans';-inkscape-font-specification:'gill sans Italic';fill:#ffffff;fill-opacity:1"
         id="path4405" />
      <path
         d="m 174.40796,1016.334 -2.04712,14.5996 -2.76123,0 0.26977,-1.6821 -0.0635,-0.079 q -1.92017,2.0471 -3.93555,2.0471 -1.99951,0 -3.41186,-1.6821 -1.39649,-1.698 -1.39649,-4.0942 0,-4.1577 2.60254,-6.8555 2.61841,-2.6978 7.29981,-2.6978 1.90429,0 3.4436,0.4444 z m -4.22119,10.3784 1.20605,-8.4265 q -0.44433,-0.032 -0.85693,-0.032 -3.25318,0 -4.95117,2.0788 -1.698,2.063 -1.698,4.6179 0,1.7615 0.80932,2.8882 0.8252,1.1109 2.07886,1.1109 0.99976,0 2.18994,-0.9839 1.19019,-0.9998 1.22193,-1.2537 z"
         style="font-style:italic;font-variant:normal;font-weight:normal;font-stretch:normal;font-size:32.5px;font-family:'gill sans';-inkscape-font-specification:'gill sans Italic';fill:#ffffff;fill-opacity:1"
         id="path4407" />
      <path
         d="m 181.78711,1008.7644 -3.12622,22.1692 -2.76123,0 3.12622,-22.1692 2.76123,0 z"
         style="font-style:italic;font-variant:normal;font-weight:normal;font-stretch:normal;font-size:32.5px;font-family:'gill sans';-inkscape-font-specification:'gill sans Italic';fill:#ffffff;fill-opacity:1"
         id="path4409" />
      <path
         d="m 190.51514,1016.334 -0.30152,2.1582 -2.91992,0 -1.39648,7.9822 q -0.11109,0.603 -0.11109,1.0156 0,1.4282 1.53931,1.4282 1.14258,0 2.66602,-0.8728 l -0.1587,2.6978 q -1.52343,0.6506 -3.031,0.6506 -1.79322,0 -2.84058,-0.9045 -1.03149,-0.9205 -1.03149,-2.4122 0,-0.3649 0.0793,-0.7458 l 1.52344,-8.8391 -2.5708,0 0.33325,-2.1582 2.65015,0 0.55542,-2.9834 2.72949,0 -0.50781,2.9834 2.79297,0 z"
         style="font-style:italic;font-variant:normal;font-weight:normal;font-stretch:normal;font-size:32.5px;font-family:'gill sans';-inkscape-font-specification:'gill sans Italic';fill:#ffffff;fill-opacity:1"
         id="path4411" />
      <path
         d="m 203.38501,1016.334 -10.45776,22.074 -2.93579,0 3.96728,-8.3472 -2.82471,-13.7268 2.76123,0 2.01538,10.0452 4.58619,-10.0452 2.88818,0 z"
         style="font-style:italic;font-variant:normal;font-weight:normal;font-stretch:normal;font-size:32.5px;font-family:'gill sans';-inkscape-font-specification:'gill sans Italic';fill:#ffffff;fill-opacity:1"
         id="path4413" />
      <path
         d="m 219.71436,1022.3167 -0.39673,2.7612 -7.72827,0 0.39672,-2.7612 7.72828,0 z"
         style="font-style:italic;font-variant:normal;font-weight:normal;font-stretch:normal;font-size:32.5px;font-family:'gill sans';-inkscape-font-specification:'gill sans Italic';fill:#ffffff;fill-opacity:1"
         id="path4415" />
      <path
         d="m 235.29785,1008.7644 -1.39648,9.9182 0.0635,0.063 q 2.45972,-2.8565 5.06226,-2.8565 1.60278,0 2.49145,1.095 0.90455,1.0791 0.90455,2.9199 0,0.5237 -0.0794,1.0791 l -1.39648,9.95 -2.76123,0 1.39648,-10.1086 q 0.0476,-0.3809 0.0476,-0.7142 0,-2.1423 -1.698,-2.1423 -1.23779,0 -2.80884,1.6028 -1.57104,1.5869 -1.61865,1.8725 l -1.33301,9.4898 -2.76123,0 3.12622,-22.1692 2.76123,0 z"
         style="font-style:italic;font-variant:normal;font-weight:normal;font-stretch:normal;font-size:32.5px;font-family:'gill sans';-inkscape-font-specification:'gill sans Italic';fill:#ffffff;fill-opacity:1"
         id="path4417" />
      <path
         d="m 252.11914,1015.8896 q 2.45972,0 3.93555,1.7457 1.4917,1.7297 1.4917,4.6179 0,3.999 -1.99952,6.5698 -1.99951,2.5708 -4.91943,2.5708 -2.5708,0 -4.03076,-1.7297 -1.45996,-1.7298 -1.45996,-4.8084 0,-3.8245 2.01538,-6.3953 2.01538,-2.5708 4.96704,-2.5708 z m 0,2.1741 q -1.698,0 -2.93579,2.1106 -1.22192,2.0947 -1.22192,4.9671 0,1.7138 0.72998,2.7929 0.74585,1.0791 1.84082,1.0791 1.72973,0 2.95166,-1.9677 1.23779,-1.9678 1.23779,-4.9512 0,-1.8408 -0.71411,-2.9358 -0.71411,-1.095 -1.88843,-1.095 z"
         style="font-style:italic;font-variant:normal;font-weight:normal;font-stretch:normal;font-size:32.5px;font-family:'gill sans';-inkscape-font-specification:'gill sans Italic';fill:#ffffff;fill-opacity:1"
         id="path4419" />
      <path
         d="m 265.354,1012.6365 -0.52368,3.6975 q 1.11084,-0.4444 2.47559,-0.4444 2.5708,0 4.30054,1.9361 1.7456,1.936 1.7456,4.8559 0,3.4754 -2.3645,6.0938 -2.34863,2.6184 -6.44287,2.6184 l -1.82495,0 -0.96802,7.0142 -2.76123,0 2.58667,-18.4559 q -0.88867,0.6348 -1.61865,1.6504 -0.71412,1.0157 -0.80933,1.0157 -0.12695,0 -0.12695,-0.2063 0,-0.73 0.82519,-2.0948 0.84107,-1.3806 1.99951,-2.3169 l 0.74585,-5.3637 2.76123,0 z m -0.80932,5.7446 -1.4917,10.6641 1.33301,0 q 2.80883,0 4.47509,-1.8885 1.66626,-1.9043 1.66626,-4.4751 0,-2.2216 -1.17431,-3.4594 -1.17432,-1.2537 -2.9834,-1.2537 -0.96802,0 -1.82495,0.4126 z"
         style="font-style:italic;font-variant:normal;font-weight:normal;font-stretch:normal;font-size:32.5px;font-family:'gill sans';-inkscape-font-specification:'gill sans Italic';fill:#ffffff;fill-opacity:1"
         id="path4421" />
      <path
         d="m 281.28662,1012.6365 -0.52368,3.6975 q 1.11084,-0.4444 2.47559,-0.4444 2.5708,0 4.30053,1.9361 1.74561,1.936 1.74561,4.8559 0,3.4754 -2.3645,6.0938 -2.34864,2.6184 -6.44288,2.6184 l -1.82495,0 -0.96801,7.0142 -2.76123,0 2.58667,-18.4559 q -0.88868,0.6348 -1.61866,1.6504 -0.71411,1.0157 -0.80932,1.0157 -0.12696,0 -0.12696,-0.2063 0,-0.73 0.8252,-2.0948 0.84106,-1.3806 1.99951,-2.3169 l 0.74585,-5.3637 2.76123,0 z m -0.80933,5.7446 -1.49169,10.6641 1.333,0 q 2.80884,0 4.4751,-1.8885 1.66626,-1.9043 1.66626,-4.4751 0,-2.2216 -1.17432,-3.4594 -1.17431,-1.2537 -2.98339,-1.2537 -0.96802,0 -1.82496,0.4126 z"
         style="font-style:italic;font-variant:normal;font-weight:normal;font-stretch:normal;font-size:32.5px;font-family:'gill sans';-inkscape-font-specification:'gill sans Italic';fill:#ffffff;fill-opacity:1"
         id="path4423" />
      <path
         d="m 303.42407,1016.334 -10.45776,22.074 -2.93579,0 3.96728,-8.3472 -2.8247,-13.7268 2.76123,0 2.01538,10.0452 4.58618,-10.0452 2.88818,0 z"
         style="font-style:italic;font-variant:normal;font-weight:normal;font-stretch:normal;font-size:32.5px;font-family:'gill sans';-inkscape-font-specification:'gill sans Italic';fill:#ffffff;fill-opacity:1"
         id="path4425" />
    </g>
    <g
       transform="matrix(0,1,-1,0,0,0)"
       style="font-style:normal;font-variant:normal;font-weight:normal;font-stretch:normal;font-size:40px;line-height:125%;font-family:'Helvetica CY';-inkscape-font-specification:'Helvetica CY';letter-spacing:0px;word-spacing:0px;opacity:0.75;fill:#000000;fill-opacity:1;stroke:none;stroke-width:1px;stroke-linecap:butt;stroke-linejoin:miter;stroke-opacity:1"
       id="text4348-0">
      <path
         d="m 842.60681,-41.107502 -3.12622,22.169189 -2.76123,0 3.12622,-22.169189 2.76123,0 z"
         style="font-style:italic;font-variant:normal;font-weight:normal;font-stretch:normal;font-size:32.5px;font-family:'gill sans';-inkscape-font-specification:'gill sans Italic';fill:#ffffff;fill-opacity:1"
         id="path4384" />
      <path
         d="m 845.16174,-38.108234 q 0,-0.666504 0.46021,-1.126709 0.47607,-0.476075 1.12671,-0.476075 0.65063,0 1.11084,0.476075 0.47607,0.460205 0.47607,1.126709 0,0.650634 -0.47607,1.126709 -0.46021,0.460205 -1.11084,0.460205 -0.65064,0 -1.12671,-0.460205 -0.46021,-0.476075 -0.46021,-1.126709 z m 2.45972,4.570312 -2.04712,14.599609 -2.76123,0 2.04712,-14.599609 2.76123,0 z"
         style="font-style:italic;font-variant:normal;font-weight:normal;font-stretch:normal;font-size:32.5px;font-family:'gill sans';-inkscape-font-specification:'gill sans Italic';fill:#ffffff;fill-opacity:1"
         id="path4386" />
      <path
         d="m 862.6178,-33.537922 -0.28565,2.158203 -2.8247,0 q 0.96801,1.364746 0.96801,2.888184 0,1.745605 -0.79345,3.078613 -0.77759,1.333008 -1.92017,1.888428 -1.12671,0.539551 -2.91992,0.872803 -1.79321,0.317382 -2.26929,0.650634 -0.47607,0.317383 -0.47607,0.761719 0,0.333252 0.4126,0.618897 0.41259,0.269775 2.96752,0.888671 2.57081,0.618897 3.58643,1.650391 1.03149,1.047363 1.03149,2.459717 0,1.777344 -1.68212,2.967529 -1.68213,1.190186 -4.2688,1.190186 -2.7771,0 -4.57032,-1.079102 -1.77734,-1.079101 -1.77734,-2.697754 0,-2.110595 4.20532,-3.015136 -2.53906,-0.93628 -2.53906,-2.570801 0,-0.841065 0.77759,-1.571045 0.77759,-0.74585 2.11059,-1.126709 -2.63427,-1.253662 -2.63427,-4.189453 0,-2.459717 1.58691,-4.141846 1.60278,-1.682129 3.84033,-1.682129 l 7.47437,0 z m -7.63306,8.585205 q 1.25366,0 2.04712,-1.015625 0.80933,-1.031494 0.80933,-2.39624 0,-1.2854 -0.74585,-2.094727 -0.72998,-0.825195 -1.85669,-0.825195 -1.11084,0 -1.99951,1.031494 -0.88868,1.031494 -0.88868,2.348633 0,1.2854 0.74585,2.126465 0.74585,0.825195 1.88843,0.825195 z m -0.6189,11.409912 q 1.41236,0 2.25342,-0.507812 0.84107,-0.507813 0.84107,-1.317139 0,-0.793457 -1.38062,-1.444092 -1.38061,-0.634765 -1.87256,-0.634765 -0.61889,0 -2.20581,0.650634 -1.57104,0.666504 -1.57104,1.4917 0,0.809326 1.04736,1.2854 1.06323,0.476074 2.88818,0.476074 z"
         style="font-style:italic;font-variant:normal;font-weight:normal;font-stretch:normal;font-size:32.5px;font-family:'gill sans';-inkscape-font-specification:'gill sans Italic';fill:#ffffff;fill-opacity:1"
         id="path4388" />
      <path
         d="m 868.6322,-41.107502 -1.39648,9.918213 0.0635,0.06348 q 2.45972,-2.856445 5.06226,-2.856445 1.60278,0 2.49146,1.094971 0.90454,1.079101 0.90454,2.919922 0,0.523681 -0.0793,1.079101 l -1.39648,9.949951 -2.76123,0 1.39648,-10.108642 q 0.0476,-0.380859 0.0476,-0.714111 0,-2.142334 -1.698,-2.142334 -1.23779,0 -2.80884,1.602783 -1.57104,1.586914 -1.61865,1.872558 l -1.33301,9.489746 -2.76123,0 3.12622,-22.169189 2.76123,0 z"
         style="font-style:italic;font-variant:normal;font-weight:normal;font-stretch:normal;font-size:32.5px;font-family:'gill sans';-inkscape-font-specification:'gill sans Italic';fill:#ffffff;fill-opacity:1"
         id="path4390" />
      <path
         d="m 886.56433,-33.537922 -0.30151,2.158203 -2.91992,0 -1.39649,7.982178 q -0.11108,0.603027 -0.11108,1.015625 0,1.428223 1.5393,1.428223 1.14258,0 2.66602,-0.872803 l -0.15869,2.697754 q -1.52344,0.650635 -3.03101,0.650635 -1.79321,0 -2.84057,-0.904541 -1.0315,-0.920411 -1.0315,-2.41211 0,-0.36499 0.0793,-0.745849 l 1.52344,-8.839112 -2.57081,0 0.33326,-2.158203 2.65014,0 0.55542,-2.983398 2.72949,0 -0.50781,2.983398 2.79297,0 z"
         style="font-style:italic;font-variant:normal;font-weight:normal;font-stretch:normal;font-size:32.5px;font-family:'gill sans';-inkscape-font-specification:'gill sans Italic';fill:#ffffff;fill-opacity:1"
         id="path4392" />
      <path
         d="m 903.57605,-27.555256 -0.39673,2.761231 -7.72827,0 0.39673,-2.761231 7.72827,0 z"
         style="font-style:italic;font-variant:normal;font-weight:normal;font-stretch:normal;font-size:32.5px;font-family:'gill sans';-inkscape-font-specification:'gill sans Italic';fill:#ffffff;fill-opacity:1"
         id="path4394" />
      <path
         d="m 928.12561,-41.107502 -3.12622,22.169189 q -1.60278,0.460206 -3.72925,0.460206 -3.69751,0 -5.69702,-1.761475 -1.98364,-1.761475 -1.98364,-4.998779 0,-3.173828 2.58667,-5.950928 2.58667,-2.792969 7.01416,-2.792969 l 1.15844,0 1.01563,-7.125244 2.76123,0 z m -5.58594,20.280762 1.4917,-10.854492 -0.71411,0 q -3.09448,0 -4.99878,1.888427 -1.88843,1.872559 -1.88843,4.490967 0,2.174072 1.25367,3.364258 1.25366,1.174316 3.58642,1.174316 0.84107,0 1.26953,-0.06348 z"
         style="font-style:italic;font-variant:normal;font-weight:normal;font-stretch:normal;font-size:32.5px;font-family:'gill sans';-inkscape-font-specification:'gill sans Italic';fill:#ffffff;fill-opacity:1"
         id="path4396" />
      <path
         d="m 942.31262,-33.537922 -2.04712,14.599609 -2.76123,0 0.26978,-1.682128 -0.0635,-0.07935 q -1.92016,2.047119 -3.93555,2.047119 -1.99951,0 -3.41186,-1.682129 -1.39649,-1.697998 -1.39649,-4.094238 0,-4.157715 2.60254,-6.855469 2.61841,-2.697754 7.29981,-2.697754 1.9043,0 3.4436,0.444336 z m -4.22119,10.378418 1.20606,-8.426514 q -0.44434,-0.03174 -0.85694,-0.03174 -3.25317,0 -4.95117,2.078858 -1.698,2.062988 -1.698,4.617919 0,1.761475 0.80933,2.888184 0.82519,1.11084 2.07886,1.11084 0.99975,0 2.18994,-0.983887 1.19018,-0.999756 1.22192,-1.253662 z"
         style="font-style:italic;font-variant:normal;font-weight:normal;font-stretch:normal;font-size:32.5px;font-family:'gill sans';-inkscape-font-specification:'gill sans Italic';fill:#ffffff;fill-opacity:1"
         id="path4398" />
      <path
         d="m 949.07288,-33.537922 -0.42847,2.7771 0.0635,0.06348 q 1.30127,-1.856689 2.06298,-2.459717 0.76172,-0.603027 1.80909,-0.603027 0.65063,0 1.20605,0.222168 l 0,3.126221 q -0.8728,-0.491944 -1.698,-0.491944 -0.80932,0 -1.44409,0.412598 -0.63476,0.396729 -1.53931,1.729736 -0.90454,1.317139 -0.93628,1.602784 l -1.14257,8.220214 -2.76123,0 2.04712,-14.599609 2.76123,0 z"
         style="font-style:italic;font-variant:normal;font-weight:normal;font-stretch:normal;font-size:32.5px;font-family:'gill sans';-inkscape-font-specification:'gill sans Italic';fill:#ffffff;fill-opacity:1"
         id="path4400" />
      <path
         d="m 959.84802,-41.107502 -1.99951,13.980713 6.18897,-6.411133 3.50708,0 -6.69678,6.903076 7.15698,7.696533 -3.50708,0 -6.72851,-7.410888 -1.04737,7.410888 -2.72949,0 3.09448,-22.169189 2.76123,0 z"
         style="font-style:italic;font-variant:normal;font-weight:normal;font-stretch:normal;font-size:32.5px;font-family:'gill sans';-inkscape-font-specification:'gill sans Italic';fill:#ffffff;fill-opacity:1"
         id="path4402" />
    </g>
  </g>
  <g
     inkscape:groupmode="layer"
     id="layer2"
     inkscape:label="Layer 2"
     style="display:none"
     sodipodi:insensitive="true">
    <text
       transform="translate(0,-752.36208)"
       sodipodi:linespacing="125%"
       id="text4370"
       y="1030.9336"
       x="135.86182"
       style="font-style:normal;font-variant:normal;font-weight:normal;font-stretch:normal;font-size:40px;line-height:125%;font-family:'Helvetica CY';-inkscape-font-specification:'Helvetica CY';letter-spacing:0px;word-spacing:0px;opacity:0.75;fill:#000000;fill-opacity:1;stroke:none;stroke-width:1px;stroke-linecap:butt;stroke-linejoin:miter;stroke-opacity:1"
       xml:space="preserve"><tspan
         style="font-style:italic;font-variant:normal;font-weight:normal;font-stretch:normal;font-size:32.5px;font-family:'gill sans';-inkscape-font-specification:'gill sans Italic';fill:#ffffff;fill-opacity:1"
         y="1030.9336"
         x="135.86182"
         id="tspan4372"
         sodipodi:role="line">malty - hoppy</tspan></text>
    <text
       transform="matrix(0,1,-1,0,0,-752.36208)"
       sodipodi:linespacing="125%"
       id="text4374"
       y="-18.938313"
       x="835.97351"
       style="font-style:normal;font-variant:normal;font-weight:normal;font-stretch:normal;font-size:40px;line-height:125%;font-family:'Helvetica CY';-inkscape-font-specification:'Helvetica CY';letter-spacing:0px;word-spacing:0px;opacity:0.75;fill:#000000;fill-opacity:1;stroke:none;stroke-width:1px;stroke-linecap:butt;stroke-linejoin:miter;stroke-opacity:1"
       xml:space="preserve"><tspan
         style="font-style:italic;font-variant:normal;font-weight:normal;font-stretch:normal;font-size:32.5px;font-family:'gill sans';-inkscape-font-specification:'gill sans Italic';fill:#ffffff;fill-opacity:1"
         y="-18.938313"
         x="835.97351"
         id="tspan4376"
         sodipodi:role="line">light - dark</tspan></text>
  </g>
</svg>
